<?xml version="1.0" encoding="UTF-8"?>
<svg id="katman_1" data-name="katman 1" xmlns="http://www.w3.org/2000/svg" viewBox="0 0 203.9 248.64">
  <path d="M203.74,137.22V37.52c-11.37,0-23.13-.21-34.45-.09l-7.13.15-5.12,13.91c11.05-.18,22.11-.26,33.16-.26l.11,32.69c.07,23.18,1.24,35.28-16.45,54.61-2.16,2.36-6.42,5.7-9.2,7.29-1.31-5.2-2.5-9.56-4.36-14.64-3.56,14.58-7.73,27.65-21.14,35.85.01-3.11-.03-6.3.02-9.41-13.71,11.2-19.6,21.18-24.71,37.71-.25-12.24-1.52-29.8,5.35-40.2,3.9-2.1,7.95-3.75,11.75-5.99,12.18-7.17,21.35-20.16,21.86-34.49-11.87-9.54-32.97-24.53-45.99-32.74-.25,17.11.08,34.2-.12,51.28-7.58-5.35-21.96-20.46-26.21-28.68-5.92,6.27-12.17,11.64-18.73,17.22,5.37,18.24,15.68,25.81,32.46,33.01,6.96,11.4,5.85,27.23,5.7,40.46-5.69-17.27-11.25-25.85-24.54-37.85.08,3.6-.17,6.31-.49,9.91-10.77-6.46-14.68-15.92-18.63-27.47-.16,6.81-.69,16.55-.43,23.13,1.36,2.08,1.84,3.01,3.69,4.7,12.93,10.19,24.35,14.04,32.69,30.13-10.35-10.79-15.99-14.59-29.14-22.18l.99.64c-5.84.88-11.87.96-17.79,1.12,2.33,1.44,5.35,2.81,6.81,4.78,0,2.93-5.2,3.49-7.67,4.05,11.22,7.42,17.24,7.47,29.59,11,16.11,4.6,24.18,14.04,25.21,31.22-16.66-10.23-33.23-20.61-49.69-31.14-8.17-5.14-16.67-10.27-24.78-15.53-1.21-.78-1.38-1.88-1.63-2.77-.88-3.2-11.09-10.81-14.1-12.97-.24,6.47-.89,18.77,4.05,23.17,9.29,8.28,23.31,16.03,33.87,22.64l58.9,36.86,61.09-38.25c6.5-4.08,13.02-8.12,19.55-12.16,5.52-3.41,14.53-8.7,15.1-16.02,1.14-14.77.58-30.12.55-44.99ZM162.21,162.98c6.58-5.06,11.61-10.59,16.55-17.33-.16,1.61-1.75,4.61-2.68,6.02-13.13,19.83-35.99,28.36-53.11,44.49,1.95-10.74,30.99-26.83,39.24-33.18ZM189.76,180.44c-3.26,3.17-26.21,16.94-31.07,19.99l-27.23,17.13c-5.53,3.53-11.55,7.67-17.18,10.82l.63-7.38c3.78-27.39,38.04-21.99,53.67-34.96-4.35-1.1-5.69-1.55-9.37-3.78,13.47-8.46,21.08-10.15,30.45-25.13,1.28,1.83.53,20.16.1,23.31Z" fill="#0b5067"/>
  <path d="M173.17,93.92c-1.43-1.47-5.99-8.77-7.1-9.32-10.08-4.91-17.63-12.79-26.5-19.45-5.53-4.16-11.79-7.41-17.15-11.88-3.87-3.23-2.75-8.98-8.62-9.48-5.35,1.48-10.72,2.9-16.1,4.28-1.31,1.39-4.85,5.29-6.53,6.07-9.17,4.24-13.76,12.02-21.09,17.87-11.36,9.05-19.8,20.12-30.72,29.34-2.06,1.75-5.46,2.18-8.04,2.66-2.12,14.26-6.26,11.98-12.72,20.98-5.21.79-11.93,1.35-15.18,6.23-9.7,14.6,3.25,24.8,13.77,33.14,3.01,2.39,7.6,7.42,11.41,7.54l.99-.53c-.52-1.79-1.83-3.3-2.96-4.82,2.8,1.92,7.46,6.07,10.89,5.15.47-1.94-1.99-2.8-1.29-3.86,4.02,1.13,4.4,4.71,8.55,3.96l.61-.85c-.23-1.18-.38-1.99-.71-3.13,3.13-.05,6.84,6.02,10.94,4.03-.05-1.53-3.32-5.7-4.38-7.39-.15-13.33.23-26.66,1.14-39.96,1.53-1.96,2.4-3.13,4.26-4.85l49.64-45.15c12.53,8.65,47.92,31.13,54.91,41.01,4.03,5.71,6.1,13.13,8.43,19.67,7.7-7.76,11.6-14.44,14.88-25.01-2.59-7.02-6.17-10.92-11.33-16.25ZM31.11,152.78c-7.67-7.59-11.16-17.93.07-25.04,1.75-1.11,5.14-1.76,7.24-2.28-12.86,5.76-15.04,15.54-5.87,26.47,2.8,2.53,6.46,5.66,8.81,8.49-3.39-2.49-6.97-5.04-10.25-7.64ZM44.67,167.76s-.01-.03-.02-.05h.02s0,.05,0,.05ZM42.02,119.75c-2.12-.02-4.19-.41-6.29-.73,1.46-3.53,2.45-6.01,4.35-9.31,2.42,1.11,4.3,2.35,6.54,3.75l-4.6,6.29ZM50.44,108.63l-4.46-2.71c-1.36-.78-1.56-.78-2.53-2.03,7.69-8.13,16.29-13.31,23.86-21.37,2.71-2.89,5.98-5.71,8.96-8.35l.31.7c-7.12,9.86-18.48,24.3-26.14,33.76ZM151.48,83.09c-8.09-3.95-30.61-16.16-37.56-20.95.82-2.9,1.63-5.81,2.42-8.72,9.63,6.15,17.1,15.43,26.47,22,2.85,2,6.54,5.07,9.06,7.4l-.39.27Z" fill="#0b5067"/>
  <path d="M97.54.4c7.25-.92,20.19-.05,27.47.52-2.01,11.19-2.87,22.56-2.59,33.92,2.21-12.55,4.62-20.57,9.02-32.45,5.47.77,11.14,2.4,16.5,3.83-5.04,13.98-6.66,22.08-8.67,36.58,4.2-14.25,7.5-21.29,15.17-33.76,5.2,2.07,9.43,4.06,14.46,6.48-11.11,15.13-18.13,31.44-20.03,50.18-3.59-2.83-7.14-5.65-10.81-8.34-2.32-1.71-9.21-5.93-10.73-7.54-6.16-6.53-3.63-7.07-11.62-12.13-2.02.03-5.22,1.17-7.14,1.61-10.27,2.3-14.18,5.13-22.16,11.38-2.16,1.69-6.97,4.16-8.93,6.18-4.16,4.29-6.29,7.12-11.06,10.9-1.38-20.07-9.24-35.87-20.47-52.16,3.57-1.98,10.82-5.06,14.53-6.54,7.32,11.71,10.29,19.1,14.46,32.1-1.14-14.4-3.23-21-7.66-34.62,5.27-1.88,10.7-3.3,16.22-4.25,3.85,11.85,6.33,19.56,8.48,31.89,1.18-11.69-.46-21.46-2.55-32.78,2.63-.53,5.44-.73,8.12-.99Z" fill="#0b5067"/>
  <path d="M10.68,37.34c13.89.19,27.78.22,41.67.09,1.89,4.85,3.53,9.09,5.11,14.08-11-.19-22-.23-33-.11.13,12.02-.01,24.37.03,36.43,0,8.23-.06,16.46-.18,24.69-4.92,2.43-5.34,3.11-8.69,7.35l-4.83.95c-.3-26.85-.6-56.69-.1-83.48Z" fill="#0b5067"/>
</svg>